<svg width="28" height="28" viewBox="0 0 28 28" fill="none" xmlns="http://www.w3.org/2000/svg">
<g id="christmas-snowflake 1" clip-path="url(#clip0_37_560)">
<path id="Vector" d="M26.2733 16.9167C26.199 16.7826 26.0991 16.6644 25.9791 16.569C25.8592 16.4735 25.7216 16.4026 25.5742 16.3604C25.4269 16.3181 25.2726 16.3053 25.1203 16.3227C24.968 16.3401 24.8207 16.3873 24.6866 16.4617L22.8899 17.5C22.8034 17.5513 22.7047 17.5784 22.6041 17.5784C22.5035 17.5784 22.4048 17.5513 22.3183 17.5L20.1249 16.24C20.0366 16.1864 19.9635 16.111 19.9125 16.0212C19.8614 15.9314 19.8342 15.83 19.8333 15.7267V12.32C19.8342 12.2167 19.8614 12.1153 19.9125 12.0255C19.9635 11.9356 20.0366 11.8603 20.1249 11.8067L22.3183 10.5C22.4048 10.4487 22.5035 10.4216 22.6041 10.4216C22.7047 10.4216 22.8034 10.4487 22.8899 10.5L24.6866 11.4917C24.8563 11.5916 25.0497 11.644 25.2466 11.6433C25.4565 11.6439 25.6626 11.5879 25.8433 11.4811C26.024 11.3743 26.1725 11.2208 26.2733 11.0367C26.3477 10.9026 26.3949 10.7552 26.4123 10.6029C26.4296 10.4506 26.4168 10.2964 26.3746 10.149C26.3323 10.0017 26.2615 9.86411 26.166 9.74416C26.0705 9.62422 25.9524 9.52426 25.8183 9.45L25.4099 9.33333C25.3647 9.30723 25.327 9.26989 25.3004 9.22492C25.2738 9.17995 25.2593 9.12889 25.2583 9.07667C25.2591 9.02575 25.2723 8.97581 25.2967 8.93111C25.3211 8.8864 25.3559 8.84828 25.3983 8.82L25.6666 8.59833C25.9358 8.44362 26.1325 8.18831 26.2135 7.88857C26.2944 7.58882 26.253 7.26919 26.0983 7C25.9436 6.7308 25.6883 6.53409 25.3885 6.45314C25.0888 6.37219 24.7691 6.41362 24.4999 6.56833L24.1966 6.74333C24.1513 6.76593 24.1014 6.77769 24.0508 6.77769C24.0002 6.77769 23.9502 6.76593 23.9049 6.74333C23.8611 6.71666 23.825 6.67887 23.8005 6.63381C23.7759 6.58874 23.7636 6.53798 23.7649 6.48667V6.02C23.7649 5.71058 23.642 5.41383 23.4232 5.19504C23.2044 4.97625 22.9077 4.85333 22.5983 4.85333C22.2889 4.85333 21.9921 4.97625 21.7733 5.19504C21.5545 5.41383 21.4316 5.71058 21.4316 6.02V8.07333C21.4277 8.17443 21.3991 8.27304 21.3483 8.36051C21.2974 8.44797 21.2259 8.52162 21.1399 8.575L18.9933 9.77667C18.9007 9.8288 18.7962 9.85618 18.6899 9.85618C18.5837 9.85618 18.4792 9.8288 18.3866 9.77667L15.4466 7.93333C15.3621 7.87936 15.2923 7.80529 15.2435 7.71775C15.1946 7.6302 15.1682 7.53191 15.1666 7.43167V5.09833C15.166 4.99766 15.1915 4.89855 15.2406 4.81064C15.2896 4.72273 15.3606 4.64902 15.4466 4.59667L17.2083 3.5C17.4295 3.32573 17.5801 3.07735 17.6325 2.80068C17.6849 2.52402 17.6355 2.23775 17.4933 1.99468C17.3512 1.75161 17.1259 1.56816 16.8591 1.47816C16.5923 1.38816 16.3019 1.39769 16.0416 1.505L15.6449 1.75C15.5997 1.7726 15.5497 1.78436 15.4991 1.78436C15.4485 1.78436 15.3986 1.7726 15.3533 1.75C15.3031 1.72955 15.2594 1.69604 15.2265 1.65296C15.1937 1.60987 15.173 1.55878 15.1666 1.505V1.16667C15.1666 0.857247 15.0437 0.560501 14.8249 0.341709C14.6061 0.122916 14.3094 0 13.9999 0C13.6905 0 13.3938 0.122916 13.175 0.341709C12.9562 0.560501 12.8333 0.857247 12.8333 1.16667V1.505C12.8322 1.55722 12.8177 1.60829 12.7912 1.65325C12.7646 1.69822 12.7269 1.73556 12.6816 1.76167C12.6363 1.78426 12.5864 1.79603 12.5358 1.79603C12.4852 1.79603 12.4352 1.78426 12.3899 1.76167L11.9933 1.51667C11.8632 1.4166 11.7135 1.3451 11.5539 1.30683C11.3943 1.26857 11.2284 1.26441 11.0671 1.29463C10.9058 1.32484 10.7527 1.38875 10.6178 1.48217C10.4828 1.5756 10.3691 1.69644 10.2841 1.8368C10.199 1.97716 10.1446 2.13388 10.1242 2.29673C10.1039 2.45958 10.1181 2.62489 10.166 2.78186C10.2139 2.93883 10.2944 3.08393 10.4022 3.20767C10.51 3.33142 10.6427 3.43103 10.7916 3.5L12.5533 4.56167C12.6393 4.61402 12.7103 4.68773 12.7593 4.77564C12.8084 4.86355 12.8339 4.96266 12.8333 5.06333V7.39667C12.8317 7.49691 12.8053 7.5952 12.7564 7.68275C12.7076 7.77029 12.6378 7.84436 12.5533 7.89833L9.61328 9.765C9.52068 9.81713 9.41621 9.84451 9.30995 9.84451C9.20368 9.84451 9.09921 9.81713 9.00661 9.765L6.84828 8.52833C6.76233 8.47496 6.69079 8.40131 6.63994 8.31384C6.58909 8.22637 6.56048 8.12777 6.55661 8.02667V5.97333C6.55661 5.66391 6.4337 5.36717 6.21491 5.14838C5.99611 4.92958 5.69937 4.80667 5.38995 4.80667C5.08053 4.80667 4.78378 4.92958 4.56499 5.14838C4.3462 5.36717 4.22328 5.66391 4.22328 5.97333V6.44C4.2246 6.49132 4.21235 6.54207 4.18776 6.58714C4.16318 6.63221 4.12714 6.66999 4.08328 6.69667C4.03799 6.71926 3.98806 6.73103 3.93745 6.73103C3.88683 6.73103 3.83691 6.71926 3.79161 6.69667L3.49995 6.56833C3.23075 6.41362 2.91113 6.37219 2.61138 6.45314C2.31163 6.53409 2.05632 6.7308 1.90161 7C1.7469 7.26919 1.70547 7.58882 1.78642 7.88857C1.86738 8.18831 2.06409 8.44362 2.33328 8.59833L2.63661 8.76167C2.67896 8.78995 2.71381 8.82807 2.7382 8.87277C2.76258 8.91747 2.77576 8.96742 2.77661 9.01833C2.78407 9.08401 2.76987 9.15031 2.73617 9.20717C2.70248 9.26403 2.65113 9.30833 2.58995 9.33333L2.18161 9.555C1.92598 9.70444 1.73674 9.9455 1.65225 10.2293C1.56776 10.5131 1.59434 10.8184 1.72661 11.0833C1.82735 11.2674 1.97589 11.421 2.15658 11.5278C2.33727 11.6345 2.54341 11.6906 2.75328 11.69C2.95018 11.6906 3.14361 11.6382 3.31328 11.5383L5.10995 10.5C5.19645 10.4487 5.29519 10.4216 5.39578 10.4216C5.49637 10.4216 5.59511 10.4487 5.68161 10.5L7.87495 11.76C7.96325 11.8136 8.0364 11.889 8.08744 11.9788C8.13848 12.0686 8.16574 12.17 8.16661 12.2733V15.6333C8.16574 15.7367 8.13848 15.838 8.08744 15.9279C8.0364 16.0177 7.96325 16.093 7.87495 16.1467L5.68161 17.5C5.59511 17.5513 5.49637 17.5784 5.39578 17.5784C5.29519 17.5784 5.19645 17.5513 5.10995 17.5L3.31328 16.5083C3.04254 16.3536 2.72143 16.3128 2.42059 16.3948C2.11975 16.4769 1.86382 16.6751 1.70911 16.9458C1.55441 17.2166 1.51358 17.5377 1.59563 17.8385C1.67768 18.1394 1.87587 18.3953 2.14661 18.55L2.55495 18.7717C2.60019 18.7978 2.63792 18.8351 2.66449 18.8801C2.69106 18.925 2.70557 18.9761 2.70661 19.0283C2.70576 19.0792 2.69258 19.1292 2.6682 19.1739C2.64381 19.2186 2.60896 19.2567 2.56661 19.285L2.33328 19.4017C2.19764 19.4759 2.07811 19.5764 1.98164 19.6972C1.88517 19.8181 1.81369 19.9569 1.77136 20.1056C1.72902 20.2544 1.71667 20.41 1.73503 20.5635C1.75338 20.7171 1.80208 20.8654 1.87828 21C1.95445 21.1368 2.05739 21.2569 2.18096 21.3531C2.30453 21.4493 2.4462 21.5196 2.59752 21.5599C2.74885 21.6002 2.90674 21.6096 3.06178 21.5876C3.21682 21.5655 3.36583 21.5125 3.49995 21.4317L3.80328 21.2567C3.84857 21.2341 3.8985 21.2223 3.94911 21.2223C3.99973 21.2223 4.04966 21.2341 4.09495 21.2567C4.13881 21.2833 4.17485 21.3211 4.19943 21.3662C4.22401 21.4113 4.23626 21.462 4.23495 21.5133V21.98C4.23495 22.2894 4.35786 22.5862 4.57666 22.805C4.79545 23.0238 5.0922 23.1467 5.40161 23.1467C5.71103 23.1467 6.00778 23.0238 6.22657 22.805C6.44536 22.5862 6.56828 22.2894 6.56828 21.98V19.9267C6.57214 19.8256 6.60076 19.727 6.65161 19.6395C6.70246 19.552 6.774 19.4784 6.85995 19.425L9.01828 18.1767C9.11088 18.1245 9.21535 18.0972 9.32161 18.0972C9.42788 18.0972 9.53235 18.1245 9.62495 18.1767L12.5649 20.0083C12.6494 20.0623 12.7192 20.1364 12.7681 20.2239C12.817 20.3115 12.8434 20.4098 12.8449 20.51V22.8433C12.8455 22.944 12.8201 23.0431 12.771 23.131C12.7219 23.2189 12.6509 23.2927 12.5649 23.345L10.7916 24.5C10.6374 24.5636 10.4986 24.6594 10.3846 24.7812C10.2706 24.9029 10.1841 25.0477 10.1307 25.2057C10.0774 25.3638 10.0586 25.5314 10.0756 25.6973C10.0926 25.8632 10.1449 26.0236 10.2291 26.1676C10.3133 26.3115 10.4274 26.4358 10.5637 26.5319C10.7 26.6281 10.8553 26.6939 11.0192 26.7249C11.183 26.756 11.3517 26.7515 11.5137 26.7118C11.6757 26.6722 11.8273 26.5982 11.9583 26.495L12.3549 26.25C12.4002 26.2274 12.4502 26.2156 12.5008 26.2156C12.5514 26.2156 12.6013 26.2274 12.6466 26.25C12.6919 26.2761 12.7296 26.3134 12.7562 26.3584C12.7827 26.4034 12.7972 26.4544 12.7983 26.5067V26.8333C12.7983 27.1428 12.9212 27.4395 13.14 27.6583C13.3588 27.8771 13.6555 28 13.9649 28C14.2744 28 14.5711 27.8771 14.7899 27.6583C15.0087 27.4395 15.1316 27.1428 15.1316 26.8333V26.495C15.1327 26.4428 15.1472 26.3917 15.1737 26.3467C15.2003 26.3018 15.238 26.2644 15.2833 26.2383C15.3286 26.2157 15.3785 26.204 15.4291 26.204C15.4797 26.204 15.5297 26.2157 15.5749 26.2383L15.9716 26.4833C16.2363 26.6421 16.5531 26.6895 16.8527 26.6151C17.1523 26.5408 17.4102 26.3508 17.5699 26.0867C17.7282 25.8272 17.779 25.5162 17.7114 25.2199C17.6439 24.9235 17.4634 24.6653 17.2083 24.5L15.4466 23.4383C15.3606 23.386 15.2896 23.3123 15.2406 23.2244C15.1915 23.1365 15.166 23.0373 15.1666 22.9367V20.6033C15.1682 20.5031 15.1946 20.4048 15.2435 20.3173C15.2923 20.2297 15.3621 20.1556 15.4466 20.1017L18.3866 18.27C18.4792 18.2179 18.5837 18.1905 18.6899 18.1905C18.7962 18.1905 18.9007 18.2179 18.9933 18.27L21.1516 19.5183C21.2376 19.5717 21.3091 19.6454 21.3599 19.7328C21.4108 19.8203 21.4394 19.9189 21.4433 20.02V22.0733C21.4433 22.3828 21.5662 22.6795 21.785 22.8983C22.0038 23.1171 22.3005 23.24 22.6099 23.24C22.9194 23.24 23.2161 23.1171 23.4349 22.8983C23.6537 22.6795 23.7766 22.3828 23.7766 22.0733V21.6067C23.7753 21.5553 23.7875 21.5046 23.8121 21.4595C23.8367 21.4145 23.8728 21.3767 23.9166 21.35C23.9619 21.3274 24.0118 21.3156 24.0624 21.3156C24.1131 21.3156 24.163 21.3274 24.2083 21.35L24.5116 21.525C24.6509 21.6005 24.8041 21.6469 24.9619 21.6613C25.1197 21.6757 25.2788 21.6577 25.4295 21.6086C25.5801 21.5595 25.7192 21.4802 25.8382 21.3756C25.9572 21.2709 26.0536 21.1431 26.1216 21C26.1978 20.8654 26.2465 20.7171 26.2649 20.5635C26.2832 20.41 26.2709 20.2544 26.2285 20.1056C26.1862 19.9569 26.1147 19.8181 26.0183 19.6972C25.9218 19.5764 25.8023 19.4759 25.6666 19.4017L25.3633 19.2383C25.3209 19.2101 25.2861 19.1719 25.2617 19.1272C25.2373 19.0825 25.2241 19.0326 25.2233 18.9817C25.2243 18.9294 25.2388 18.8784 25.2654 18.8334C25.292 18.7884 25.3297 18.7511 25.3749 18.725L25.7833 18.5033C25.9204 18.4321 26.0419 18.3343 26.1409 18.2157C26.2399 18.0971 26.3143 17.96 26.3599 17.8124C26.4055 17.6648 26.4213 17.5096 26.4064 17.3559C26.3916 17.2021 26.3463 17.0528 26.2733 16.9167ZM14.3033 18.025C14.2123 18.0819 14.1072 18.1121 13.9999 18.1121C13.8927 18.1121 13.7875 18.0819 13.6966 18.025L10.7799 16.2167C10.6949 16.1662 10.6243 16.0945 10.5753 16.0086C10.5262 15.9227 10.5002 15.8256 10.4999 15.7267V12.2267C10.5002 12.1277 10.5262 12.0306 10.5753 11.9447C10.6243 11.8588 10.6949 11.7871 10.7799 11.7367L13.6966 9.92833C13.7875 9.87141 13.8927 9.84122 13.9999 9.84122C14.1072 9.84122 14.2123 9.87141 14.3033 9.92833L17.2199 11.7367C17.305 11.7871 17.3756 11.8588 17.4246 11.9447C17.4737 12.0306 17.4997 12.1277 17.4999 12.2267V15.7267C17.4997 15.8256 17.4737 15.9227 17.4246 16.0086C17.3756 16.0945 17.305 16.1662 17.2199 16.2167L14.3033 18.025Z" fill="#2A688F"/>
</g>
<defs>
<clipPath id="clip0_37_560">
<rect width="28" height="28" fill="white"/>
</clipPath>
</defs>
</svg>
